<svg xmlns="http://www.w3.org/2000/svg" width="88" height="30" fill="none" viewBox="0 0 88 30"><g clip-path="url(#a)"><path fill="#15a9ca" d="m13.606 4.594-3.273-3.273A4.5 4.5 0 0 0 7.154 0a4.18 4.18 0 0 0-2.92 1.176 4.284 4.284 0 0 0-.06 6.107l5.94 5.94a.68.68 0 0 0 .933 0l2.555-2.557c.161-.192 2.835-3.245.004-6.072"/><path fill="#52caa3" d="M18.969 9.824c-.623-.604-1.27-1.227-1.854-1.902V7.9q-.032.092-.047.188a6.73 6.73 0 0 1-2.003 3.748A2780 2780 0 0 0 4.763 22.137l-.455.451a4.37 4.37 0 0 0-1.337 2.415 4.67 4.67 0 0 0 1.2 3.67 3.92 3.92 0 0 0 3.085 1.324c1.344.02 2-.157 2.98-1.11 3.92-3.837 7.84-7.706 10.807-10.646 1.4-1.392 1.72-3.697.729-5.249a18 18 0 0 0-2.803-3.167"/><path fill="#5268ad" d="M-.004 7.773v14.458a.804.804 0 0 0 1.372.568l7.276-7.276a.74.74 0 0 0 0-1.042L1.368 7.205a.78.78 0 0 0-.56-.235.81.81 0 0 0-.812.803"/><path fill="#1d2434" d="M31.748 21.14V8.876h3.638c3.987 0 6.468 2.352 6.468 6.127s-2.481 6.139-6.468 6.139zm1.96-1.756h1.76c2.693 0 4.43-1.716 4.43-4.37s-1.737-4.371-4.43-4.371h-1.76zm16.904 1.945a6.326 6.326 0 1 1 0-12.652 6.326 6.326 0 0 1 0 12.652m0-10.835a4.512 4.512 0 0 0 0 9.016 4.555 4.555 0 0 0 4.449-4.532 4.473 4.473 0 0 0-4.45-4.484m24.446-1.619h-2.015v12.254h2.015zm7.417 12.454a9.6 9.6 0 0 1-3.76-.804v-1.803a9.2 9.2 0 0 0 3.76.87c1.568 0 2.614-.717 2.614-1.78 0-1.195-1.278-1.67-2.63-2.171-2.12-.784-3.744-1.54-3.744-3.548 0-2.52 2.282-3.418 4.238-3.418 1.1 0 2.19.205 3.214.604v1.764a9.2 9.2 0 0 0-3.265-.651c-1.505 0-2.18.784-2.18 1.568 0 1.039 1.13 1.454 2.454 1.933 2.313.835 4.077 1.65 4.077 3.841-.008 2.125-1.968 3.595-4.778 3.595m-16.449-5.155.764-.33a3.63 3.63 0 0 0 2.2-3.327c0-2.211-1.592-3.638-4.054-3.638H60.29V21.14h1.96V10.61h2.478a2.15 2.15 0 0 1 2.277 2.16 2.17 2.17 0 0 1-2.277 2.16h-1.043c-.459.067-.22.459-.22.459l3.956 5.75h2.214z"/></g><defs><clipPath id="a"><path fill="#fff" d="M0 0h87.244v30H0z"/></clipPath></defs></svg>