<svg xmlns="http://www.w3.org/2000/svg" xml:space="preserve" width="800" height="800" viewBox="0 0 495.043 495.043"><path d="M475.033 58.33H131.996c-11.053 0-20.012 8.959-20.012 20.011v73.565h251.063c29.912 0 54.25 24.34 54.25 54.251v102.741h57.736c11.05 0 20.01-8.961 20.01-20.012V78.341c0-11.052-8.96-20.011-20.01-20.011"/><path d="M363.047 186.145H20.011C8.96 186.145 0 195.106 0 206.157v210.546c0 11.051 8.96 20.011 20.011 20.011h343.036c11.053 0 20.012-8.96 20.012-20.011V206.157c0-11.051-8.959-20.012-20.012-20.012m-12.199 217.417c-4.674 4.782-12.224 5.202-17.393.963-29.289-24.016-89.878-74.821-89.878-74.821l-43.848 36.394a12.8 12.8 0 0 1-8.201 2.965c-2.914 0-5.816-.989-8.197-2.965l-43.85-36.394-89.995 74.708c-5.429 4.536-13.529 3.808-18.083-1.677-4.52-5.453-3.775-13.547 1.685-18.077l86.302-71.636-86.302-71.63c-5.46-4.529-6.204-12.622-1.685-18.075 4.536-5.493 12.641-6.197 18.083-1.677l142.042 117.9 142.043-117.9c5.445-4.504 13.548-3.8 18.086 1.677 4.522 5.453 3.775 13.546-1.688 18.075l-86.301 71.63 86.198 71.606c5.794 4.813 6.247 13.547.982 18.934"/></svg>